<svg xmlns="http://www.w3.org/2000/svg" viewBox="0 0 960 320" role="img" aria-labelledby="title desc">
  <title id="title">DealBuddy logo</title>
  <desc id="desc">DealBuddy wordmark with the Chinese descriptor shopping buddy and a verified product-card chat mark.</desc>
  <defs>
    <linearGradient id="markBg" x1="52" y1="38" x2="264" y2="282" gradientUnits="userSpaceOnUse">
      <stop offset="0" stop-color="#172033"/>
      <stop offset="1" stop-color="#0F172A"/>
    </linearGradient>
    <linearGradient id="decisionPath" x1="106" y1="116" x2="220" y2="212" gradientUnits="userSpaceOnUse">
      <stop offset="0" stop-color="#22D3EE"/>
      <stop offset="1" stop-color="#2563EB"/>
    </linearGradient>
  </defs>

  <rect x="32" y="32" width="256" height="256" rx="64" fill="url(#markBg)"/>
  <path
    d="M94 90c0-19.9 16.1-36 36-36h76c19.9 0 36 16.1 36 36v94c0 19.9-16.1 36-36 36h-29.5l-44.6 39.7c-6.2 5.5-15.9 1.1-15.9-7.2V220h-18c-19.9 0-36-16.1-36-36V90Z"
    fill="#FFFFFF"/>
  <rect x="114" y="80" width="108" height="94" rx="22" fill="#F8FAFC"/>
  <rect x="132" y="102" width="72" height="10" rx="5" fill="#172033" opacity=".82"/>
  <rect x="132" y="126" width="54" height="8" rx="4" fill="#64748B" opacity=".42"/>
  <rect x="132" y="146" width="45" height="8" rx="4" fill="#64748B" opacity=".28"/>
  <path
    d="M103 201c26-3.8 47.2-15 63.5-33.5 12-13.7 22.5-31 37.5-53.5"
    fill="none"
    stroke="url(#decisionPath)"
    stroke-width="15"
    stroke-linecap="round"/>
  <path
    d="M166 168l22 21 39-47"
    fill="none"
    stroke="#FBBF24"
    stroke-width="15"
    stroke-linecap="round"
    stroke-linejoin="round"/>
  <circle cx="103" cy="201" r="9" fill="#22D3EE"/>
  <circle cx="204" cy="114" r="9" fill="#2563EB"/>

  <text
    x="340"
    y="143"
    fill="#172033"
    font-family="Inter, ui-sans-serif, system-ui, -apple-system, BlinkMacSystemFont, 'Segoe UI', sans-serif"
    font-size="76"
    font-weight="800"
    letter-spacing="-1">
    DealBuddy
  </text>
  <text
    x="344"
    y="204"
    fill="#2563EB"
    font-family="Inter, ui-sans-serif, system-ui, -apple-system, BlinkMacSystemFont, 'Segoe UI', sans-serif"
    font-size="32"
    font-weight="700"
    letter-spacing="4">
    购物搭子
  </text>
  <path d="M345 229h276" stroke="#E2E8F0" stroke-width="2" stroke-linecap="round"/>
  <text
    x="344"
    y="262"
    fill="#64748B"
    font-family="Inter, ui-sans-serif, system-ui, -apple-system, BlinkMacSystemFont, 'Segoe UI', sans-serif"
    font-size="18"
    font-weight="600"
    letter-spacing=".4">
    capture facts · clarify needs · choose calmly
  </text>
</svg>
