<svg xmlns="http://www.w3.org/2000/svg" viewBox="0 0 512 512" role="img" aria-labelledby="title desc">
  <title id="title">DealBuddy mark</title>
  <desc id="desc">A rounded shopping companion mark combining a verified product card, chat bubble, and decision path.</desc>
  <defs>
    <linearGradient id="bg" x1="96" y1="64" x2="416" y2="448" gradientUnits="userSpaceOnUse">
      <stop offset="0" stop-color="#172033"/>
      <stop offset="1" stop-color="#0F172A"/>
    </linearGradient>
    <linearGradient id="path" x1="176" y1="188" x2="354" y2="338" gradientUnits="userSpaceOnUse">
      <stop offset="0" stop-color="#22D3EE"/>
      <stop offset="1" stop-color="#2563EB"/>
    </linearGradient>
  </defs>

  <rect width="512" height="512" rx="118" fill="url(#bg)"/>
  <path
    d="M152 146c0-30.9 25.1-56 56-56h132c30.9 0 56 25.1 56 56v152c0 30.9-25.1 56-56 56h-56l-72 64c-9.7 8.6-25 1.7-25-11.3V354h-35c-30.9 0-56-25.1-56-56V146Z"
    fill="#FFFFFF"/>
  <path
    d="M150 146c0-32 26-58 58-58h132c32 0 58 26 58 58v152c0 32-26 58-58 58h-55.2l-70.5 62.7c-11.1 9.9-29.3 2-29.3-12.8V356h-33c-32 0-58-26-58-58V146Zm58-18c-9.9 0-18 8.1-18 18v152c0 9.9 8.1 18 18 18h57v39.8l47.9-42.8H340c9.9 0 18-8.1 18-18V146c0-9.9-8.1-18-18-18H208Z"
    fill="#22D3EE"
    opacity=".18"/>
  <rect x="182" y="144" width="184" height="152" rx="32" fill="#F8FAFC"/>
  <rect x="212" y="178" width="124" height="16" rx="8" fill="#172033" opacity=".82"/>
  <rect x="212" y="214" width="92" height="14" rx="7" fill="#64748B" opacity=".42"/>
  <rect x="212" y="246" width="78" height="14" rx="7" fill="#64748B" opacity=".28"/>
  <path
    d="M194 322c42-6 76-24 102-54 18.8-21.7 35-48.5 58-82"
    fill="none"
    stroke="url(#path)"
    stroke-width="24"
    stroke-linecap="round"/>
  <path
    d="M292 267l32 31 58-70"
    fill="none"
    stroke="#FBBF24"
    stroke-width="24"
    stroke-linecap="round"
    stroke-linejoin="round"/>
  <circle cx="194" cy="322" r="14" fill="#22D3EE"/>
  <circle cx="354" cy="186" r="14" fill="#2563EB"/>
</svg>
